# xmcd CD database file
#
# Track frame offsets:
#	150
#	18549
#	36790
#	60688
#	77900
#	90747
#
# Disc length: 1471 seconds
#
# Revision: 0
# Processed by: cddbd v1.5.1PL2 Copyright (c) Steve Scherf et al.
# Submitted via: CDex 1.50
#
DISCID=4505bd06
DTITLE=Various Artist - Universal Music Country Music Sampler November 2005
DYEAR=2005
DGENRE=Country
TTITLE0=Road Hammers - I'm A Road Hammer
TTITLE1=Sugarland - Just Might (Make Believe)
TTITLE2=Ryan Adams - Blue Sky Blues
TTITLE3=Trisha Yearwood - Trying To Love You
TTITLE4=Hot Apple Pie - We're Makin Up
TTITLE5=Melissa Etheridge - I Run For Life
EXTD=YEAR: 2005
EXTT0=
EXTT1=
EXTT2=
EXTT3=
EXTT4=
EXTT5=
PLAYORDER=
